<?xml version="1.0" encoding="UTF-8" standalone="no"?>
<!-- Created with Inkscape (http://www.inkscape.org/) -->

<svg
   width="62.009842mm"
   height="62.009838mm"
   viewBox="0 0 62.009842 62.009838"
   version="1.1"
   id="svg1"
   xml:space="preserve"
   xmlns="http://www.w3.org/2000/svg"
   xmlns:svg="http://www.w3.org/2000/svg"><defs
     id="defs1" /><g
     id="layer1"
     transform="translate(-74.563855,-88.057645)"><g
       style="fill:#f2f2f2"
       id="g1"
       transform="matrix(2.8068564,-1.1810682,1.1810682,2.8068564,57.713618,99.553036)"><path
         id="path2"
         d="M 19.012818,3.9047742 12.76536,1.3170266 c -0.4901,-0.20299 -1.040615,-0.2028902 -1.530715,9.98e-5 L 4.9871023,3.9047994 C 4.4970523,4.1077894 4.1077436,4.497172 3.9047536,4.987222 L 1.317006,11.23468 c -0.20299,0.4901 -0.2028902,1.040615 9.98e-5,1.530715 l 2.5877388,6.247386 c 0.20299,0.4901 0.5923068,0.879505 1.0823568,1.082505 l 6.2474586,2.587748 c 0.4901,0.203 1.040614,0.2029 1.530714,-10e-5 l 6.247386,-2.587739 c 0.4901,-0.203 0.879506,-0.592257 1.082506,-1.082357 l 2.587747,-6.247458 c 0.203,-0.4901 0.202966,-1.040771 -3.4e-5,-1.530871 L 20.09524,4.987123 C 19.89224,4.497073 19.502918,4.1077642 19.012818,3.9047742 Z M 15.380715,3.7276265 c 0.198636,0.08118 0.381553,0.2010585 0.536974,0.3550074 l 3.962273,3.924959 c 0.310841,0.3078977 0.486558,0.726779 0.488637,1.1642582 l 0.02643,5.5770709 c 0.0021,0.437517 -0.169721,0.857949 -0.477626,1.168787 l -3.925116,3.962208 c -0.307905,0.310839 -0.726583,0.486639 -1.164101,0.488703 L 9.2511148,20.39505 C 8.8135921,20.39715 8.3931658,20.22533 8.0823275,19.917425 L 4.1201226,15.992311 C 3.8093223,15.684421 3.6334764,15.265724 3.6314197,14.828209 L 3.6049876,9.2511384 C 3.6029309,8.8136237 3.7747157,8.3931924 4.0826133,8.0823511 L 8.0077288,4.1201432 C 8.3156107,3.8093403 8.7343538,3.6335126 9.1718305,3.6314403 l 5.5770705,-0.026432 c 0.218758,-0.00103 0.433177,0.041438 0.631814,0.1226182 z"
         style="display:inline;fill:#f2f2f2" /></g></g></svg>
